<svg xmlns="http://www.w3.org/2000/svg" preserveAspectRatio="none" viewBox="0 0 1 1" width="256" height="256">
<g transform="matrix(0.00390625,-0,-0,0.00390625,-0,-0)"><defs><radialGradient id="4527777986604286782" cx="94.64960951208697" cy="230.18966942229304" r="214.9881585793413" gradientTransform="matrix(0.004749054145923918,-0,0,0.004660822884391965,-0.10787893067826311,-0.09658532920216786)"><stop offset="0" stop-color="#F6F1F0FF" /><stop offset="0.75" stop-color="#070606FF" /><stop offset="1" stop-color="#010000FF" /></radialGradient><linearGradient id="2146667119326344890" x1="92.81156964743867" x2="163.18843035256143" y1="35.40234876671776" y2="220.5976512332821" gradientTransform="matrix(0.005046812243787611,-0,0,0.005046812243787613,-0.1459919672048145,-0.14599196720481397)"><stop offset="0" stop-color="#070707FF" /><stop offset="1" stop-color="#1D1D1DFF" /></linearGradient><linearGradient id="15362314431721667734" x1="79.82022731206914" x2="95.42072087359269" y1="135.40789002414112" y2="117.69207359213318" gradientTransform="matrix(0.020325796190864966,-0,0,0.02701366773637832,-1.0068792742068795,-3.2078612606550267)"><stop offset="0" stop-color="#FFFFFFFF" /><stop offset="1" stop-color="#000000FF" /></linearGradient><linearGradient id="9638745913630535809" x1="187.81181122638336" x2="203.41230478790692" y1="135.40789002414112" y2="117.69207359213317" gradientTransform="matrix(0.020325796190864956,-0,0,0.027013667736378314,-3.2018941991779206,-3.2078612606550263)"><stop offset="0" stop-color="#FFFFFFFF" /><stop offset="1" stop-color="#000000FF" /></linearGradient><radialGradient id="18437994516176473738" cx="138.26768985426673" cy="195.86705087589266" r="30.634400233237496" gradientTransform="matrix(0.021776952834784594,-0,0,0.04574310229410573,-2.2924638766226657,-8.587701267395971)"><stop offset="0" stop-color="#ECA5A8FF" /><stop offset="0.3645797163326912" stop-color="#E76780FF" /><stop offset="1" stop-color="#DC262AFF" /></radialGradient><linearGradient id="11961940639321062267" x1="97.63706626957948" x2="220.35273352162028" y1="80.50094210851438" y2="75.95583433750299" gradientTransform="matrix(0.006027138973083394,-0,0,0.00939516181275983,-0.28370951051036297,-0.045472705285090495)"><stop offset="0" stop-color="#FFFF00FF" /><stop offset="1" stop-color="#F0B90CFF" /></linearGradient></defs><g transform="matrix(
1,0,0,1,0,0)" style="mix-blend-mode: normal; opacity: 1"><g transform="matrix(
74.49763975208266,-228.26958955453242,223.03012084346446,72.78769517484092,-20.763880297772886,205.74094718984546)" style="mix-blend-mode: normal; opacity: 1"><g transform="matrix(
0.0012920853114340924,0.004052110497550798,-0.003959102461714139,0.0013224392643421123,0.8413781952358439,-0.18794236952229493)"><path d="M16.484939578268445,91.60615241257925C37.03827137610044,28.62831003955202 103.71650704222316,-6.216365880814607 165.248819876042,13.865205222733493 C226.78113270986088,33.946776326281594 260.0683922195649,101.41600521439294 239.5150604217329,164.39384758742017 C218.9617286239009,227.37168996044738 152.2834929577782,262.216365880814 90.75118012395934,242.1347947772659 C29.2188672901405,222.0532236737178 -4.068392219563542,154.58399478560645 16.484939578268445,91.60615241257925 Z" fill="#292727" stroke="#FCFCFC" stroke-width="1" stroke-dasharray="none" stroke-dashoffset="0" stroke-linecap="butt" stroke-linejoin="miter" stroke-miterlimit="4" /></g></g><g transform="matrix(
66.70078097582673,-204.3793388445877,199.68822236327176,65.16979662462474,-5.194501669548913,197.60477110998067)" style="mix-blend-mode: normal; opacity: 1"><g transform="matrix(
0.0014431179422713708,0.004525769699958504,-0.004421889763022904,0.0014770200119568462,0.8812827930561922,-0.26835708312516515)"><path d="M28.155888818364453,95.41510168768683C46.55812662258108,39.028397654195516 106.25792978701158,7.830479703494291 161.3503904879137,25.810330577705344 C216.44285118881584,43.790181451916396 246.24634898585285,104.19819427882025 227.8441111816362,160.58489831231157 C209.4418733774196,216.97160234580286 149.7420702129891,248.1695202965041 94.64960951208697,230.18966942229304 C39.557148811184845,212.20981854808198 9.753651014147833,151.80180572117814 28.155888818364453,95.41510168768683 Z" fill="url('#4527777986604286782')"/></g></g><g transform="matrix(
70.37686070512275,185.19530246656433,-185.19530246656436,70.37686070512274,185.40922088072085,0.2139184141563817)" style="mix-blend-mode: normal; opacity: 1"><g transform="matrix(
0.0017930317828186,-0.0047183273028130815,0.004718327302813082,0.0017930317828186004,-0.333453962960855,0.8744378265592939)"><path d="M220.59765123328222,92.81156964743855C240.01409145576264,143.9055440560538 214.28240476117668,201.1812110108017 163.18843035256143,220.59765123328208 C112.09445594394616,240.01409145576247 54.818788989198254,214.28240476117654 35.402348766717864,163.18843035256128 C15.985908544237475,112.09445594394603 41.71759523882341,54.81878898919814 92.81156964743867,35.40234876671775 C143.90554405605394,15.985908544237363 201.18121101080183,41.7175952388233 220.59765123328222,92.81156964743855 Z" fill="url('#2146667119326344890')" stroke="#292929" stroke-width="1" stroke-dasharray="none" stroke-dashoffset="0" stroke-linecap="butt" stroke-linejoin="miter" stroke-miterlimit="4" /></g></g><g transform="matrix(
1.0000000000000138,0.00000000000000001344410693882044,-0.000000000000000013444106938820443,1.0000000000000138,-0.5619946953554091,33.123281094173265)" style="mix-blend-mode: normal; opacity: 1"><g transform="matrix(
0.9999999999999862,-0.00000000000000001344410693882007,0.000000000000000013444106938820073,0.9999999999999862,0.5619946953554009,-33.12328109417281)"><path d="M54.171955159064254,154.88647775636142C45.71066367712671,154.79833734213366 47.032739630626196,118.83787207939014 73.474265425042,118.74973334626888 C100.97343105319116,118.65806913448317 102.20737474511965,155.76786172536106 94.98002888909289,155.76786172536112 C87.39551763251556,155.76786172536112 91.71891089356454,139.28598083262483 74.70819760210071,139.1097033663823 C59.284557813458754,138.94987231781928 61.31116060086328,154.79833734213364 54.171955159064254,154.88647775636142 Z" fill="url('#15362314431721667734')"/></g></g><g transform="matrix(
1.0000000000000138,0.00000000000000001344410693882044,-0.000000000000000013444106938820443,1.0000000000000138,107.42958921895885,33.123281094173265)" style="mix-blend-mode: normal; opacity: 1"><g transform="matrix(
0.9999999999999862,-0.00000000000000001344410693882007,0.000000000000000013444106938820073,0.9999999999999862,-107.42958921895737,-33.12328109417281)"><path d="M162.1635390733785,154.88647775636142C153.70224759144097,154.79833734213366 155.02432354494044,118.83787207939014 181.46584933935628,118.74973334626888 C208.96501496750543,118.65806913448317 210.1989586594339,155.76786172536106 202.97161280340714,155.76786172536112 C195.38710154682983,155.76786172536112 199.7104948078788,139.28598083262483 182.699781516415,139.1097033663823 C167.27614172777302,138.94987231781928 169.30274451517755,154.79833734213364 162.1635390733785,154.88647775636142 Z" fill="url('#9638745913630535809')"/></g></g><g transform="matrix(
1.0000000000000138,0.00000000000000001344410693882044,-0.000000000000000013444106938820443,1.0000000000000138,-0.5619946953571002,33.123281094174246)" style="mix-blend-mode: normal; opacity: 1"><g transform="matrix(
0.9999999999999862,-0.00000000000000001344410693882007,0.000000000000000013444106938820073,0.9999999999999862,0.561994695357092,-33.12328109417379)"><path d="M103.41928106470552,169.8479692852464C109.50082843347533,169.75983055212512 108.09061879017403,178.74994938947077 127.92175473045342,178.66180897524296 C149.6945822148602,178.56503862183683 147.22405827200512,170.02424170816937 152.68864291445863,170.20052253662493 C158.15322755691216,170.3768033650805 160.70923568747037,210.1272207031864 128.450583766968,210.21535775520118 C95.6627446200353,210.30494065195296 97.24959328170789,169.93610801836766 103.41928106470552,169.8479692852464 Z" fill="#FFFFFF"/></g></g><g transform="matrix(
1.0000000000000138,0.00000000000000001344410693882044,-0.000000000000000013444106938820443,1.0000000000000138,-0.5619946953553381,33.12328109417237)" style="mix-blend-mode: normal; opacity: 1"><g transform="matrix(
0.9999999999999862,-0.00000000000000001344410693882007,0.000000000000000013444106938820073,0.9999999999999862,0.5619946953553299,-33.123281094171915)"><path d="M105.27018605472135,197.61156430873376C105.27018605472135,197.61156430873376 110.3126383203609,187.91634064973752 127.94031770035406,187.74006318349498 C145.56799708034723,187.56378571725244 151.19029285693142,196.9945948579914 151.19029285693142,196.9945948579914 C151.19029285693142,196.9945948579914 144.579913089434,209.68652871868474 127.94031770035403,209.5983849422439 C113.04096480072154,209.51945963183886 105.27018605472135,197.61156430873376 105.27018605472135,197.61156430873376 Z" fill="url('#18437994516176473738')"/></g></g><g transform="matrix(
1,0,0,1,0,0)" style="mix-blend-mode: normal; opacity: 1"><g transform="matrix(
1,-0,-0,1,-0,-0)"><path d="M93.14800832539828,103.03257835914152C93.14800832539828,103.03257835914152 130.80934065489643,122.1470518282826 168.2534515169715,102.16929747862127 Q201.96455936319097,46.44451400651426 201.96455936319097,46.44451400651426 C201.96455936319097,46.44451400651426 222.4834210395149,46.01170450715501 207.5328456262981,32.696938068087306 C191.9504958801076,18.819522536710657 194.02236472430783,40.74685492603219 194.02236472430783,40.74685492603219 C194.02236472430783,40.74685492603219 151.37534362350175,66.41533507942076 151.37534362350175,66.41533507942076 C151.37534362350175,66.41533507942076 134.06752337932076,18.949015986050775 134.06752337932076,18.949015986050775 C134.06752337932076,18.949015986050775 148.16255067375235,4.325442138669557 128.95809161147562,4.854003813928493 C109.75363254919876,5.382565489187432 124.55339978260712,18.949015986050775 124.55339978260712,18.949015986050775 C124.55339978260712,18.949015986050775 109.20503138581306,66.25680757993005 109.20503138581306,66.25680757993005 C109.20503138581306,66.25680757993005 64.53024581888954,40.40154784287244 64.53024581888954,40.40154784287244 C64.53024581888954,40.40154784287244 66.58147333112912,20.6420161188766 52.31027113349288,33.151341584965515 C38.03906893585666,45.6606670510544 57.45134523314754,45.581233125994 57.45134523314754,45.581233125994 C57.45134523314754,45.581233125994 93.14800832539828,103.03257835914152 93.14800832539828,103.03257835914152 Z" fill="url('#11961940639321062267')" stroke="#D2D200" stroke-width="1" stroke-dasharray="none" stroke-dashoffset="0" stroke-linecap="butt" stroke-linejoin="miter" stroke-miterlimit="4" /></g></g></g></g></svg>