<svg xmlns="http://www.w3.org/2000/svg" preserveAspectRatio="none" viewBox="0 0 1 1" width="256" height="256">
<g transform="matrix(0.00390625,-0,-0,0.00390625,-0,-0)"><defs><radialGradient id="3511903477829072453" cx="94.64960951208697" cy="230.18966942229304" r="214.9881585793413" gradientTransform="matrix(0.004749054145923917,-0,0,0.004660822884391966,-0.1078789306782631,-0.09658532920216788)"><stop offset="0" stop-color="#F6F1F0FF" /><stop offset="0.75" stop-color="#070606FF" /><stop offset="1" stop-color="#010000FF" /></radialGradient><linearGradient id="11223141053066901449" x1="92.81156964743867" x2="163.18843035256143" y1="35.40234876671776" y2="220.5976512332821" gradientTransform="matrix(0.005046812243787611,-0,0,0.005046812243787613,-0.1459919672048145,-0.14599196720481397)"><stop offset="0" stop-color="#070707FF" /><stop offset="1" stop-color="#1D1D1DFF" /></linearGradient><linearGradient id="10616489281974171949" x1="80.38222200742342" x2="95.98271556894676" y1="102.28460892996645" y2="84.56879249795875" gradientTransform="matrix(0.02032579619086525,-0,0,0.0270136677363787,-1.0183022638450212,-2.313079950838369)"><stop offset="0" stop-color="#FFFFFFFF" /><stop offset="1" stop-color="#000000FF" /></linearGradient><linearGradient id="3825698147121529991" x1="188.3738059217359" x2="203.97429948325924" y1="102.28460892996645" y2="84.56879249795875" gradientTransform="matrix(0.02032579619086523,-0,0,0.0270136677363787,-3.213317188816055,-2.313079950838369)"><stop offset="0" stop-color="#FFFFFFFF" /><stop offset="1" stop-color="#000000FF" /></linearGradient><radialGradient id="2546372285422676806" cx="138.82968454962014" cy="162.74376978171804" r="30.63440023323709" gradientTransform="matrix(0.0217769528347849,-0,0,0.04574310229410626,-2.3047024085968184,-7.072539631988811)"><stop offset="0" stop-color="#ECA5A8FF" /><stop offset="0.3645797163326912" stop-color="#E76780FF" /><stop offset="1" stop-color="#DC262AFF" /></radialGradient></defs><g transform="matrix(
1,0,0,1,0,0)" style="mix-blend-mode: normal; opacity: 1"><g transform="matrix(
74.49763975208266,-228.26958955453242,223.0301208434645,72.78769517484092,-20.763880297772886,205.74094718984546)" style="mix-blend-mode: normal; opacity: 1"><g transform="matrix(
0.0012920853114340924,0.004052110497550798,-0.003959102461714139,0.0013224392643421123,0.8413781952358439,-0.18794236952229493)"><path d="M16.484939578268445,91.60615241257925C37.03827137610044,28.62831003955202 103.71650704222317,-6.216365880814607 165.248819876042,13.865205222733493 C226.78113270986088,33.946776326281594 260.0683922195649,101.41600521439294 239.51506042173295,164.39384758742017 C218.96172862390094,227.37168996044738 152.2834929577782,262.216365880814 90.75118012395936,242.1347947772659 C29.21886729014051,222.0532236737178 -4.068392219563542,154.58399478560645 16.484939578268445,91.60615241257925 Z" fill="#292727" stroke="#FCFCFC" stroke-width="1" stroke-dasharray="none" stroke-dashoffset="0" stroke-linecap="butt" stroke-linejoin="miter" stroke-miterlimit="4" /></g></g><g transform="matrix(
66.70078097582673,-204.3793388445877,199.6882223632718,65.16979662462474,-5.194501669548913,197.60477110998067)" style="mix-blend-mode: normal; opacity: 1"><g transform="matrix(
0.0014431179422713708,0.004525769699958504,-0.004421889763022904,0.0014770200119568462,0.8812827930561922,-0.26835708312516515)"><path d="M28.155888818364453,95.41510168768683C46.55812662258108,39.028397654195516 106.25792978701159,7.830479703494291 161.35039048791373,25.810330577705344 C216.44285118881584,43.790181451916396 246.24634898585288,104.19819427882025 227.84411118163624,160.58489831231157 C209.44187337741963,216.97160234580286 149.74207021298912,248.1695202965041 94.64960951208698,230.18966942229304 C39.55714881118485,212.20981854808198 9.753651014147833,151.80180572117814 28.155888818364453,95.41510168768683 Z" fill="url('#3511903477829072453')"/></g></g><g transform="matrix(
70.37686070512275,185.19530246656433,-185.19530246656436,70.37686070512274,185.40922088072085,0.2139184141563817)" style="mix-blend-mode: normal; opacity: 1"><g transform="matrix(
0.0017930317828186,-0.0047183273028130815,0.004718327302813082,0.0017930317828186004,-0.333453962960855,0.8744378265592939)"><path d="M220.59765123328222,92.81156964743855C240.01409145576264,143.9055440560538 214.28240476117668,201.1812110108017 163.18843035256143,220.59765123328208 C112.09445594394616,240.01409145576247 54.818788989198254,214.28240476117654 35.402348766717864,163.18843035256128 C15.985908544237475,112.09445594394603 41.71759523882341,54.81878898919814 92.81156964743867,35.40234876671775 C143.90554405605394,15.985908544237363 201.18121101080183,41.7175952388233 220.59765123328222,92.81156964743855 Z" fill="url('#11223141053066901449')" stroke="#292929" stroke-width="1" stroke-dasharray="none" stroke-dashoffset="0" stroke-linecap="butt" stroke-linejoin="miter" stroke-miterlimit="4" /></g></g><g transform="matrix(
1,0,0,1,0,0)" style="mix-blend-mode: normal; opacity: 1"><g transform="matrix(
1,-0,-0,1,-0,-0)"><path d="M54.73394985441891,121.76319666218647C46.27265837248148,121.67505624795872 47.59473432598095,85.7145909852157 74.03626012039639,85.62645225209444 C101.53542574854518,85.53478804030873 102.76936944047364,122.64458063118612 95.54202358444698,122.64458063118614 C87.95751232786976,122.64458063118616 92.28090558891869,106.16269973845012 75.27019229745508,105.98642227220758 C59.84655250881334,105.82659122364456 61.87315529621784,121.6750562479587 54.73394985441891,121.76319666218647 Z" fill="url('#10616489281974171949')"/></g></g><g transform="matrix(
1,0,0,1,107.99158391431249,0)" style="mix-blend-mode: normal; opacity: 1"><g transform="matrix(
1,-0,-0,1,-107.99158391431249,-0)"><path d="M162.7255337687314,121.76319666218647C154.26424228679397,121.67505624795872 155.58631824029345,85.7145909852157 182.0278440347089,85.62645225209444 C209.52700966285767,85.53478804030873 210.76095335478612,122.64458063118612 203.53360749875947,122.64458063118614 C195.94909624218224,122.64458063118616 200.27248950323116,106.16269973845012 183.26177621176757,105.98642227220758 C167.83813642312583,105.82659122364456 169.86473921053033,121.6750562479587 162.7255337687314,121.76319666218647 Z" fill="url('#3825698147121529991')"/></g></g><g transform="matrix(
1,0,0,1,0,0)" style="mix-blend-mode: normal; opacity: 1"><g transform="matrix(
1,-0,-0,1,-0,-0)"><path d="M103.98127576006118,136.72468819107027C110.06282312883091,136.636549457949 108.65261348552964,145.6266682952945 128.48374942580875,145.53852788106673 C150.25657691021522,145.4417575276606 147.78605296736018,136.90096061399325 153.25063760981362,137.0772414424488 C158.71522225226707,137.25352227090437 161.27123038282525,177.0039396090097 129.01257846232335,177.0920766610245 C96.22473931539108,177.18165955777627 97.81158797706364,136.81282692419154 103.98127576006118,136.72468819107027 Z" fill="#FFFFFF"/></g></g><g transform="matrix(
1,0,0,1,0,0)" style="mix-blend-mode: normal; opacity: 1"><g transform="matrix(
1,-0,-0,1,-0,-0)"><path d="M105.83218075007522,164.48828321455912C105.83218075007522,164.48828321455912 110.87463301571472,154.79305955556302 128.50231239570763,154.61678208932048 C146.12999177570055,154.44050462307794 151.75228755228466,163.87131376381677 151.75228755228466,163.87131376381677 C151.75228755228466,163.87131376381677 145.14190778478735,176.56324762450993 128.5023123957076,176.47510384806912 C113.60295949607531,176.39617853766407 105.83218075007522,164.48828321455912 105.83218075007522,164.48828321455912 Z" fill="url('#2546372285422676806')"/></g></g></g></g></svg>