<svg xmlns="http://www.w3.org/2000/svg" preserveAspectRatio="none" viewBox="0 0 1 1" width="256" height="256">
<g transform="matrix(0.00390625,-0,-0,0.00390625,-0,-0)"><defs><radialGradient id="9871537955192898452" cx="92.6927025337793" cy="236.18582766788637" r="227.6029750469338" gradientTransform="matrix(0.004485839433226225,-0,0,0.004402498374287214,-0.07418744745295697,-0.0635197919087637)"><stop offset="0" stop-color="#F8D3C8FF" /><stop offset="0.75" stop-color="#D80808FF" /><stop offset="1" stop-color="#CD0501FF" /></radialGradient><linearGradient id="6635161179784994260" x1="92.81156964743867" x2="163.18843035256143" y1="35.40234876671776" y2="220.5976512332821" gradientTransform="matrix(0.005046812243787611,-0,0,0.005046812243787613,-0.1459919672048145,-0.14599196720481397)"><stop offset="0" stop-color="#E94431FF" /><stop offset="1" stop-color="#EB4F43FF" /></linearGradient><linearGradient id="13493067036350582016" x1="79.58998785624354" x2="95.19048141776688" y1="135.784440466862" y2="118.06862403485431" gradientTransform="matrix(0.02032579619086525,-0,0,0.0270136677363787,-1.0021994739526958,-3.2180332692007267)"><stop offset="0" stop-color="#000000FF" /><stop offset="1" stop-color="#FFFFFFFF" /></linearGradient><linearGradient id="1430289151817157941" x1="187.58157177055605" x2="203.1820653320794" y1="135.78444046686204" y2="118.06862403485434" gradientTransform="matrix(0.020325796190865244,-0,0,0.0270136677363787,-3.197214398923732,-3.2180332692007267)"><stop offset="0" stop-color="#000000FF" /><stop offset="1" stop-color="#FFFFFFFF" /></linearGradient><radialGradient id="7011992648354533938" cx="138.03745039844028" cy="196.24360131861283" r="30.63440023323709" gradientTransform="matrix(0.0217769528347849,-0,0,0.04574310229410626,-2.287449962852469,-8.604925852816317)"><stop offset="0" stop-color="#ECA5A8FF" /><stop offset="0.3645797163326912" stop-color="#E76780FF" /><stop offset="1" stop-color="#DC262AFF" /></radialGradient><linearGradient id="1783565452833296536" x1="97.63706626957949" x2="220.35273352162028" y1="80.50094210851438" y2="75.95583433750299" gradientTransform="matrix(0.006027138973083394,-0,0,0.009395161812759832,-0.283709510510363,-0.045472705285090516)"><stop offset="0" stop-color="#FFFF00FF" /><stop offset="1" stop-color="#F0B90CFF" /></linearGradient></defs><g transform="matrix(
1,0,0,1,0,0)" style="mix-blend-mode: normal; opacity: 1"><g transform="matrix(
70.61459493244156,-216.3716553357726,211.40528018566775,68.99377926246403,-13.009937559054606,201.68893803665435)" style="mix-blend-mode: normal; opacity: 1"><g transform="matrix(
0.0013631341658604677,0.004274930277264006,-0.0041768078708679926,0.00139515718648532,0.8601502342409634,-0.22577119535991402)"><path d="M22.297359907166175,93.50311036876805C41.77938919354236,33.807817490204684 104.98218969194139,0.7793137528772434 163.30729746622083,19.81417233211377 C221.6324052405003,38.8490309113503 253.1846693792101,102.80159675266871 233.70264009283392,162.49688963123208 C214.22061080645776,222.19218250979543 151.01781030805873,255.2206862471229 92.69270253377927,236.18582766788637 C34.36759475949983,217.15096908864984 2.8153306207899966,153.19840324733138 22.297359907166175,93.50311036876805 Z" fill="url('#9871537955192898452')" stroke="#ED443E" stroke-width="12" stroke-dasharray="none" stroke-dashoffset="0" stroke-linecap="butt" stroke-linejoin="miter" stroke-miterlimit="4" /></g></g><g transform="matrix(
70.37686070512275,185.19530246656433,-185.19530246656436,70.37686070512274,185.40922088072085,0.2139184141563817)" style="mix-blend-mode: normal; opacity: 1"><g transform="matrix(
0.0017930317828186,-0.0047183273028130815,0.004718327302813082,0.0017930317828186004,-0.333453962960855,0.8744378265592939)"><path d="M220.59765123328222,92.81156964743855C240.01409145576264,143.9055440560538 214.28240476117668,201.1812110108017 163.18843035256143,220.59765123328208 C112.09445594394616,240.01409145576247 54.818788989198254,214.28240476117654 35.402348766717864,163.18843035256128 C15.985908544237475,112.09445594394603 41.71759523882341,54.81878898919814 92.81156964743867,35.40234876671775 C143.90554405605394,15.985908544237363 201.18121101080183,41.7175952388233 220.59765123328222,92.81156964743855 Z" fill="url('#6635161179784994260')"/></g></g><g transform="matrix(
1,0,0,1,-0.7922341511798834,33.499831536895556)" style="mix-blend-mode: normal; opacity: 1"><g transform="matrix(
1,-0,-0,1,0.7922341511798834,-33.499831536895556)"><path d="M53.941715703239026,155.26302819908204C45.4804242213016,155.17488778485426 46.80250017480107,119.21442252211125 73.24402596921651,119.12628378899 C100.7431915973653,119.03461957720428 101.97713528929376,156.14441216808166 94.7497894332671,156.14441216808171 C87.16527817668988,156.14441216808171 91.4886714377388,139.66253127534566 74.4779581462752,139.48625380910312 C59.054318357633456,139.3264227605401 61.080921145037955,155.17488778485426 53.941715703239026,155.26302819908204 Z" fill="url('#13493067036350582016')"/></g></g><g transform="matrix(
1,0,0,1,107.1993497631326,33.499831536895556)" style="mix-blend-mode: normal; opacity: 1"><g transform="matrix(
1,-0,-0,1,-107.1993497631326,-33.499831536895556)"><path d="M161.9332996175515,155.26302819908204C153.4720081356141,155.17488778485426 154.79408408911354,119.21442252211125 181.23560988352898,119.12628378899 C208.73477551167778,119.03461957720428 209.96871920360624,156.14441216808166 202.74137334757958,156.14441216808171 C195.15686209100238,156.14441216808171 199.4802553520513,139.66253127534566 182.46954206058768,139.48625380910312 C167.04590227194595,139.3264227605401 169.07250505935045,155.17488778485426 161.9332996175515,155.26302819908204 Z" fill="url('#1430289151817157941')"/></g></g><g transform="matrix(
1,0,0,1,-0.7922341511762738,33.499831536894675)" style="mix-blend-mode: normal; opacity: 1"><g transform="matrix(
1,-0,-0,1,0.7922341511762738,-33.499831536894675)"><path d="M103.1890416088849,170.22451972796495C109.27058897765464,170.13638099484368 107.86037933435337,179.12649983218918 127.69151527463248,179.0383594179614 C149.46434275903894,178.94158906455527 146.9938188161839,170.40079215088792 152.45840345863735,170.57707297934348 C157.9229881010908,170.75335380779904 160.47899623164898,210.50377114590438 128.22034431114707,210.59190819791917 C95.4325051642148,210.68149109467095 97.01935382588736,170.31265846108622 103.1890416088849,170.22451972796495 Z" fill="#221517"/></g></g><g transform="matrix(
1,0,0,1,-0.792234151179855,33.49983153689479)" style="mix-blend-mode: normal; opacity: 1"><g transform="matrix(
1,-0,-0,1,0.792234151179855,-33.49983153689479)"><path d="M105.03994659889537,197.9881147514539C105.03994659889537,197.9881147514539 110.08239886453487,188.2928910924578 127.71007824452778,188.11661362621527 C145.3377576245207,187.94033615997273 150.9600534011048,197.37114530071156 150.9600534011048,197.37114530071156 C150.9600534011048,197.37114530071156 144.3496736336075,210.06307916140472 127.71007824452775,209.9749353849639 C112.81072534489546,209.89601007455886 105.03994659889537,197.9881147514539 105.03994659889537,197.9881147514539 Z" fill="url('#7011992648354533938')"/></g></g><g transform="matrix(
1,0,0,1,0,0)" style="mix-blend-mode: normal; opacity: 1"><g transform="matrix(
1,-0,-0,1,-0,-0)"><path d="M93.14800832539828,103.03257835914151C93.14800832539828,103.03257835914151 130.80934065489643,122.14705182828261 168.2534515169715,102.16929747862127 Q201.96455936319097,46.44451400651426 201.96455936319097,46.44451400651426 C201.96455936319097,46.44451400651426 222.4834210395149,46.01170450715501 207.5328456262981,32.696938068087306 C191.95049588010758,18.819522536710657 194.02236472430786,40.74685492603219 194.02236472430786,40.74685492603219 C194.02236472430786,40.74685492603219 151.37534362350175,66.41533507942076 151.37534362350175,66.41533507942076 C151.37534362350175,66.41533507942076 134.06752337932076,18.949015986050778 134.06752337932076,18.949015986050778 C134.06752337932076,18.949015986050778 148.16255067375235,4.325442138669557 128.95809161147562,4.854003813928493 C109.75363254919877,5.382565489187432 124.55339978260713,18.949015986050778 124.55339978260713,18.949015986050778 C124.55339978260713,18.949015986050778 109.20503138581306,66.25680757993005 109.20503138581306,66.25680757993005 C109.20503138581306,66.25680757993005 64.53024581888954,40.40154784287244 64.53024581888954,40.40154784287244 C64.53024581888954,40.40154784287244 66.58147333112912,20.6420161188766 52.310271133492876,33.151341584965515 C38.03906893585666,45.6606670510544 57.45134523314754,45.581233125994 57.45134523314754,45.581233125994 C57.45134523314754,45.581233125994 93.14800832539828,103.03257835914151 93.14800832539828,103.03257835914151 Z" fill="url('#1783565452833296536')" stroke="#D2D200" stroke-width="1" stroke-dasharray="none" stroke-dashoffset="0" stroke-linecap="butt" stroke-linejoin="miter" stroke-miterlimit="4" /></g></g></g></g></svg>