<svg xmlns="http://www.w3.org/2000/svg" preserveAspectRatio="none" viewBox="0 0 1 1" width="256" height="256">
<g transform="matrix(0.00390625,-0,-0,0.00390625,-0,-0)"><defs><radialGradient id="11395170077075700465" cx="92.6927025337793" cy="236.18582766788637" r="227.6029750469338" gradientTransform="matrix(0.004485839433226225,-0,0,0.004402498374287214,-0.07418744745295697,-0.0635197919087637)"><stop offset="0" stop-color="#F8D3C8FF" /><stop offset="0.75" stop-color="#D80808FF" /><stop offset="1" stop-color="#CD0501FF" /></radialGradient><linearGradient id="13479684145573151299" x1="92.81156964743867" x2="163.1884303525614" y1="35.40234876671777" y2="220.5976512332821" gradientTransform="matrix(0.005046812243787611,-0,0,0.005046812243787613,-0.1459919672048145,-0.14599196720481405)"><stop offset="0" stop-color="#E94431FF" /><stop offset="1" stop-color="#EB4F43FF" /></linearGradient><linearGradient id="16354035611804448156" x1="80.38222200742345" x2="95.98271556894679" y1="102.28460892996645" y2="84.56879249795875" gradientTransform="matrix(0.020325796190865244,-0,0,0.027013667736378685,-1.0183022638450208,-2.313079950838368)"><stop offset="0" stop-color="#000000FF" /><stop offset="1" stop-color="#FFFFFFFF" /></linearGradient><linearGradient id="5249832670361617698" x1="188.3738059217359" x2="203.97429948325924" y1="102.28460892996645" y2="84.56879249795875" gradientTransform="matrix(0.02032579619086523,-0,0,0.0270136677363787,-3.213317188816055,-2.313079950838369)"><stop offset="0" stop-color="#000000FF" /><stop offset="1" stop-color="#FFFFFFFF" /></linearGradient><radialGradient id="6498892700322084362" cx="138.82968454962014" cy="162.74376978171804" r="30.63440023323709" gradientTransform="matrix(0.0217769528347849,-0,0,0.04574310229410626,-2.3047024085968184,-7.072539631988811)"><stop offset="0" stop-color="#ECA5A8FF" /><stop offset="0.3645797163326912" stop-color="#E76780FF" /><stop offset="1" stop-color="#DC262AFF" /></radialGradient></defs><g transform="matrix(
1,0,0,1,0,0)" style="mix-blend-mode: normal; opacity: 1"><g transform="matrix(
70.61459493244156,-216.3716553357726,211.40528018566775,68.99377926246403,-13.009937559054606,201.68893803665435)" style="mix-blend-mode: normal; opacity: 1"><g transform="matrix(
0.0013631341658604677,0.004274930277264006,-0.0041768078708679926,0.00139515718648532,0.8601502342409634,-0.22577119535991402)"><path d="M22.297359907166175,93.50311036876805C41.77938919354236,33.807817490204684 104.98218969194139,0.7793137528772434 163.30729746622083,19.81417233211377 C221.6324052405003,38.8490309113503 253.1846693792101,102.80159675266871 233.70264009283392,162.49688963123208 C214.22061080645776,222.19218250979543 151.01781030805873,255.2206862471229 92.69270253377927,236.18582766788637 C34.36759475949983,217.15096908864984 2.8153306207899966,153.19840324733138 22.297359907166175,93.50311036876805 Z" fill="url('#11395170077075700465')" stroke="#ED443E" stroke-width="12" stroke-dasharray="none" stroke-dashoffset="0" stroke-linecap="butt" stroke-linejoin="miter" stroke-miterlimit="4" /></g></g><g transform="matrix(
70.37686070512274,185.1953024665643,-185.19530246656436,70.37686070512274,185.40922088072085,0.2139184141563959)" style="mix-blend-mode: normal; opacity: 1"><g transform="matrix(
0.0017930317828186004,-0.0047183273028130815,0.004718327302813083,0.0017930317828186004,-0.3334539629608552,0.8744378265592939)"><path d="M220.59765123328222,92.81156964743855C240.0140914557626,143.90554405605377 214.28240476117668,201.1812110108017 163.1884303525614,220.59765123328208 C112.09445594394614,240.01409145576247 54.818788989198254,214.2824047611765 35.402348766717864,163.18843035256128 C15.985908544237475,112.09445594394604 41.71759523882341,54.818788989198154 92.81156964743867,35.402348766717765 C143.90554405605394,15.985908544237377 201.18121101080183,41.717595238823314 220.59765123328222,92.81156964743855 Z" fill="url('#13479684145573151299')"/></g></g><g transform="matrix(
1,0,0,1,0,0)" style="mix-blend-mode: normal; opacity: 1"><g transform="matrix(
1,-0,-0,1,-0,-0)"><path d="M54.73394985441891,121.76319666218647C46.27265837248148,121.67505624795872 47.59473432598095,85.7145909852157 74.03626012039639,85.62645225209444 C101.53542574854518,85.53478804030873 102.76936944047365,122.64458063118612 95.54202358444698,122.64458063118614 C87.95751232786976,122.64458063118617 92.28090558891869,106.16269973845012 75.27019229745508,105.98642227220758 C59.84655250881334,105.82659122364457 61.87315529621784,121.6750562479587 54.73394985441891,121.76319666218647 Z" fill="url('#16354035611804448156')"/></g></g><g transform="matrix(
1,0,0,1,107.99158391431249,0)" style="mix-blend-mode: normal; opacity: 1"><g transform="matrix(
1,-0,-0,1,-107.99158391431249,-0)"><path d="M162.7255337687314,121.76319666218647C154.26424228679397,121.67505624795872 155.58631824029345,85.7145909852157 182.0278440347089,85.62645225209444 C209.52700966285767,85.53478804030873 210.76095335478612,122.64458063118612 203.53360749875947,122.64458063118614 C195.94909624218224,122.64458063118616 200.27248950323116,106.16269973845012 183.26177621176757,105.98642227220758 C167.83813642312583,105.82659122364456 169.86473921053033,121.6750562479587 162.7255337687314,121.76319666218647 Z" fill="url('#5249832670361617698')"/></g></g><g transform="matrix(
1,0,0,1,0,0)" style="mix-blend-mode: normal; opacity: 1"><g transform="matrix(
1,-0,-0,1,-0,-0)"><path d="M103.98127576006118,136.72468819107027C110.06282312883093,136.636549457949 108.65261348552963,145.6266682952945 128.48374942580875,145.53852788106673 C150.25657691021522,145.4417575276606 147.78605296736018,136.90096061399325 153.25063760981362,137.0772414424488 C158.71522225226707,137.25352227090437 161.27123038282525,177.0039396090097 129.01257846232335,177.0920766610245 C96.22473931539108,177.18165955777627 97.81158797706365,136.81282692419154 103.98127576006118,136.72468819107027 Z" fill="#221517"/></g></g><g transform="matrix(
1,0,0,1,0,0)" style="mix-blend-mode: normal; opacity: 1"><g transform="matrix(
1,-0,-0,1,-0,-0)"><path d="M105.83218075007522,164.48828321455912C105.83218075007522,164.48828321455912 110.87463301571472,154.79305955556302 128.50231239570763,154.61678208932048 C146.12999177570055,154.44050462307794 151.75228755228466,163.87131376381677 151.75228755228466,163.87131376381677 C151.75228755228466,163.87131376381677 145.14190778478735,176.56324762450993 128.5023123957076,176.47510384806912 C113.60295949607531,176.39617853766407 105.83218075007522,164.48828321455912 105.83218075007522,164.48828321455912 Z" fill="url('#6498892700322084362')"/></g></g></g></g></svg>